<svg xmlns="http://www.w3.org/2000/svg" xmlns:svg="http://www.w3.org/2000/svg" xmlns:xlink="http://www.w3.org/1999/xlink" id="svg2327" width="48" height="48"><defs id="defs3"><linearGradient id="linearGradient2329"><stop id="stop2331" offset="0" stop-color="#fff" stop-opacity="1"/><stop id="stop2333" offset="1" stop-color="#fff" stop-opacity="0"/></linearGradient><linearGradient id="linearGradient2321"><stop id="stop2323" offset="0" stop-color="#7b7f7a" stop-opacity="1"/><stop id="stop2325" offset="1" stop-color="#7b7f7a" stop-opacity="0"/></linearGradient><linearGradient id="linearGradient2711"><stop id="stop2713" offset="0" stop-color="#909090" stop-opacity="1"/><stop id="stop2715" offset="1" stop-color="#bebebe" stop-opacity="0"/></linearGradient><linearGradient id="linearGradient2701"><stop id="stop2703" offset="0" stop-color="#585956" stop-opacity="1"/><stop id="stop2705" offset="1" stop-color="#bbbeb8" stop-opacity="1"/></linearGradient><linearGradient id="linearGradient2683"><stop id="stop2685" offset="0" stop-color="#000" stop-opacity="1"/><stop id="stop2687" offset="1" stop-color="#000" stop-opacity="0"/></linearGradient><linearGradient id="linearGradient2675"><stop id="stop2677" offset="0" stop-color="#5b5b97" stop-opacity="1"/><stop id="stop2679" offset="1" stop-color="#1b1b43" stop-opacity="1"/></linearGradient><linearGradient id="linearGradient2667"><stop id="stop2669" offset="0" stop-color="#fff" stop-opacity="1"/><stop id="stop2671" offset="1" stop-color="#fcfcff" stop-opacity="0"/></linearGradient><linearGradient id="linearGradient2454"><stop id="stop2456" offset="0" stop-color="#000" stop-opacity="1"/><stop id="stop2458" offset="1" stop-color="#000" stop-opacity="0"/></linearGradient><linearGradient id="linearGradient2415"><stop id="stop2417" offset="0" stop-color="#fff" stop-opacity="1"/><stop id="stop2419" offset="1" stop-color="#fff" stop-opacity="0"/></linearGradient><linearGradient id="linearGradient2253"><stop id="stop2255" offset="0" stop-color="#8f8f8f" stop-opacity="1"/><stop id="stop2257" offset="1" stop-color="#494949" stop-opacity="1"/></linearGradient><linearGradient id="linearGradient2245"><stop id="stop2247" offset="0" stop-color="#dde1d9" stop-opacity="1"/><stop id="stop2249" offset="1" stop-color="#cacdc6" stop-opacity="1"/></linearGradient><linearGradient id="linearGradient2251" x1="8.612" x2="34.784" y1="7.229" y2="33.34" gradientTransform="matrix(1.129863,0.000000,0.000000,0.885063,2.875000,1.570628)" gradientUnits="userSpaceOnUse" xlink:href="#linearGradient2245"/><linearGradient id="linearGradient2421" x1="17.698" x2="34.975" y1="13.005" y2="55.201" gradientTransform="matrix(1.108069,0.000000,0.000000,0.902471,5.500000,3.875000)" gradientUnits="userSpaceOnUse" xlink:href="#linearGradient2415"/><radialGradient id="radialGradient2460" cx="12.576" cy="67.502" r="8.766" fx="12.576" fy="67.502" gradientTransform="scale(1.925808,0.519262)" gradientUnits="userSpaceOnUse" xlink:href="#linearGradient2454"/><linearGradient id="linearGradient2673" x1="11.492" x2="17.199" y1="1.654" y2="26.729" gradientTransform="matrix(1.238977,0.000000,0.000000,0.895955,5.090553,1.543476)" gradientUnits="userSpaceOnUse" xlink:href="#linearGradient2667"/><linearGradient id="linearGradient2681" x1="19.15" x2="16.316" y1="32.622" y2="8.867" gradientTransform="matrix(1.174139,0.000000,0.000000,0.945431,5.221825,1.543476)" gradientUnits="userSpaceOnUse" xlink:href="#linearGradient2675"/><linearGradient id="linearGradient2689" x1="3.707" x2="3.707" y1="171.291" y2="162.451" gradientTransform="matrix(5.705159,0.000000,0.000000,0.175280,5.500000,2.195627)" gradientUnits="userSpaceOnUse" xlink:href="#linearGradient2683"/><linearGradient id="linearGradient2707" x1="12.207" x2="12.128" y1="53.535" y2="64.893" gradientTransform="matrix(1.816345,0.000000,0.000000,1.278927,2.500000,-40.24508)" gradientUnits="userSpaceOnUse" xlink:href="#linearGradient2701"/><linearGradient id="linearGradient2717" x1="34.301" x2="35.521" y1="3.938" y2="3.845" gradientUnits="userSpaceOnUse" xlink:href="#linearGradient2711"/><linearGradient id="linearGradient2721" x1="34.301" x2="35.521" y1="3.938" y2="3.845" gradientUnits="userSpaceOnUse" xlink:href="#linearGradient2711"/><linearGradient id="linearGradient2725" x1="34.301" x2="35.521" y1="3.938" y2="3.845" gradientUnits="userSpaceOnUse" xlink:href="#linearGradient2711"/><linearGradient id="linearGradient2729" x1="34.301" x2="35.521" y1="3.938" y2="3.845" gradientUnits="userSpaceOnUse" xlink:href="#linearGradient2711"/><linearGradient id="linearGradient2733" x1="34.301" x2="35.521" y1="3.938" y2="3.845" gradientUnits="userSpaceOnUse" xlink:href="#linearGradient2711"/><linearGradient id="linearGradient1561" x1="10.391" x2="32.537" y1="5.382" y2="31.246" gradientTransform="matrix(1.104397,0.000000,0.000000,0.905471,4.500000,2.875000)" gradientUnits="userSpaceOnUse" xlink:href="#linearGradient2253"/><linearGradient id="linearGradient2327" x1="-35.658" x2="-35.658" y1="33.416" y2="28.206" gradientUnits="userSpaceOnUse" xlink:href="#linearGradient2321"/><linearGradient id="linearGradient2337" x1="-35.123" x2="-35.075" y1="34.242" y2="30.962" gradientUnits="userSpaceOnUse" xlink:href="#linearGradient2329"/></defs><metadata id="metadata4"/><g id="layer1"><path id="path2452" fill="url(#radialGradient2460)" fill-opacity="1" fill-rule="evenodd" stroke="none" stroke-dashoffset="0" stroke-linecap="round" stroke-linejoin="miter" stroke-miterlimit="4" stroke-opacity=".701" stroke-width="1" marker-end="none" marker-mid="none" marker-start="none" d="M 41.100580 35.051105 A 16.882174 4.5520000 0 1 1 7.3362331,35.051105 A 16.882174 4.5520000 0 1 1 41.100580 35.051105 z" color="#000" display="inline" opacity=".509" overflow="visible" transform="matrix(1.050251,0.000000,0.000000,1.867888,-0.945558,-28.10611)" visibility="visible" style="marker:none"/><path id="path2407" fill="#adb0aa" fill-opacity="1" fill-rule="evenodd" stroke="#4b4d4a" stroke-dashoffset="0" stroke-linecap="butt" stroke-linejoin="miter" stroke-miterlimit="4" stroke-opacity="1" stroke-width="1" marker-end="none" marker-mid="none" marker-start="none" d="M -26.263968 29.716238 A 9.3944187 3.9395950 0 1 1 -45.052805,29.716238 A 9.3944187 3.9395950 0 1 1 -26.263968 29.716238 z" color="#000" display="inline" overflow="visible" transform="translate(60.03339,8.078430)" visibility="visible" style="marker:none"/><path id="path1825" fill="none" fill-opacity="1" fill-rule="evenodd" stroke="url(#linearGradient2327)" stroke-dasharray="none" stroke-dashoffset="0" stroke-linecap="butt" stroke-linejoin="miter" stroke-miterlimit="4" stroke-opacity="1" stroke-width="1.157" marker-end="none" marker-mid="none" marker-start="none" d="M -26.263968 29.716238 A 9.3944187 3.9395950 0 1 1 -45.052805,29.716238 A 9.3944187 3.9395950 0 1 1 -26.263968 29.716238 z" color="#000" display="inline" overflow="visible" transform="matrix(0.902373,0.000000,0.000000,0.827650,56.55215,12.86792)" visibility="visible" style="marker:none"/><path id="path2983" fill="none" fill-opacity="1" fill-rule="evenodd" stroke="url(#linearGradient2337)" stroke-dasharray="none" stroke-dashoffset="0" stroke-linecap="butt" stroke-linejoin="miter" stroke-miterlimit="4" stroke-opacity="1" stroke-width="1.183" marker-end="none" marker-mid="none" marker-start="none" d="M -26.263968 29.716238 A 9.3944187 3.9395950 0 1 1 -45.052805,29.716238 A 9.3944187 3.9395950 0 1 1 -26.263968 29.716238 z" color="#000" display="inline" overflow="visible" transform="matrix(0.837548,0.000000,0.000000,0.852655,54.17811,11.00615)" visibility="visible" style="marker:none"/><rect stroke-linejoin="miter" style="marker:none" id="rect2699" width="9.04" height="6.365" x="19.972" y="31.079" fill="url(#linearGradient2707)" fill-opacity="1" fill-rule="evenodd" stroke="none" stroke-dashoffset="0" stroke-linecap="butt" stroke-miterlimit="4" stroke-opacity="1" stroke-width=".609" marker-end="none" marker-mid="none" marker-start="none" color="#000" display="inline" overflow="visible" visibility="visible"/><path id="rect2404" fill="url(#linearGradient2251)" fill-opacity="1" fill-rule="evenodd" stroke="url(#linearGradient1561)" stroke-dashoffset="0" stroke-linecap="butt" stroke-linejoin="miter" stroke-miterlimit="4" stroke-opacity="1" stroke-width="1" marker-end="none" marker-mid="none" marker-start="none" d="M 7.5809024,4.5706221 L 41.169097,4.5706221 C 42.080439,4.5706221 42.793244,5.1541039 42.835849,5.9722091 L 44.167893,31.550323 C 44.226102,32.668058 43.266837,33.570628 42.147588,33.570628 L 6.6024120,33.570628 C 5.4831629,33.570628 4.5238980,32.668058 4.5821068,31.550323 L 5.9141506,5.9722091 C 5.9544343,5.1986745 6.4616533,4.5706221 7.5809024,4.5706221 z" color="#000" display="inline" overflow="visible" visibility="visible" style="marker:none"/><path id="path2377" fill="url(#linearGradient2681)" fill-opacity="1" fill-rule="evenodd" stroke="#000079" stroke-dasharray="none" stroke-linecap="butt" stroke-linejoin="round" stroke-miterlimit="4" stroke-opacity="1" stroke-width=".5" d="M 8.9105350,7.1808270 L 7.6683398,29.226144 L 39.318729,29.226144 L 37.983712,7.2742560 L 8.9105350,7.1808270 z"/><path id="path2393" fill="none" fill-opacity=".75" fill-rule="evenodd" stroke="url(#linearGradient2689)" stroke-linecap="round" stroke-linejoin="miter" stroke-miterlimit="4" stroke-opacity=".248" stroke-width=".996" d="M 6.6774331,31.610789 L 42.105910,31.610789"/><path stroke-width="1" style="marker:none" id="path2397" fill="none" fill-opacity="1" fill-rule="evenodd" stroke="url(#linearGradient2421)" stroke-dashoffset="0" stroke-linecap="butt" stroke-linejoin="miter" stroke-miterlimit="4" stroke-opacity=".701" marker-end="none" marker-mid="none" marker-start="none" d="M 7.4145985,5.5813396 L 41.260101,5.5435383 C 41.543798,5.5432214 41.819403,5.7807881 41.842206,6.1960820 L 43.204098,30.999330 C 43.262137,32.056361 42.664349,32.785201 41.605727,32.785201 L 7.0817583,32.785201 C 6.0231355,32.785201 5.4887439,32.056410 5.5458869,30.999330 L 6.8699773,6.5051630 C 6.9086732,5.7893326 7.0363626,5.5817620 7.4145985,5.5813396 z" color="#000" display="inline" overflow="visible" visibility="visible"/><path id="path2443" fill="url(#linearGradient2673)" fill-opacity="1" fill-rule="evenodd" stroke="none" stroke-linecap="butt" stroke-linejoin="miter" stroke-opacity="1" stroke-width=".333" d="M 9.2115360,7.6213630 L 8.4090070,25.491693 C 19.453645,23.091063 23.830470,14.999494 37.563039,12.344943 L 37.401567,7.6874270 L 9.2115360,7.6213630 z" opacity=".531"/><path id="path2709" fill="url(#linearGradient2717)" fill-opacity="1" fill-rule="evenodd" stroke="none" stroke-dashoffset="0" stroke-linecap="butt" stroke-linejoin="miter" stroke-miterlimit="4" stroke-opacity="1" stroke-width=".5" marker-end="none" marker-mid="none" marker-start="none" d="M 35.620504 3.9384086 A 0.83968931 0.83968931 0 1 1 33.941126,3.9384086 A 0.83968931 0.83968931 0 1 1 35.620504 3.9384086 z" color="#000" display="inline" overflow="visible" transform="matrix(1.331237,0.000000,0.000000,0.658449,-5.919330,5.728866)" visibility="visible" style="marker:none"/><path id="path2719" fill="url(#linearGradient2721)" fill-opacity="1" fill-rule="evenodd" stroke="none" stroke-dashoffset="0" stroke-linecap="butt" stroke-linejoin="miter" stroke-miterlimit="4" stroke-opacity="1" stroke-width=".5" marker-end="none" marker-mid="none" marker-start="none" d="M 35.620504 3.9384086 A 0.83968931 0.83968931 0 1 1 33.941126,3.9384086 A 0.83968931 0.83968931 0 1 1 35.620504 3.9384086 z" color="#000" display="inline" overflow="visible" transform="matrix(1.331237,0.000000,0.000000,0.658449,-5.805730,7.834650)" visibility="visible" style="marker:none"/><path id="path2723" fill="url(#linearGradient2725)" fill-opacity="1" fill-rule="evenodd" stroke="none" stroke-dashoffset="0" stroke-linecap="butt" stroke-linejoin="miter" stroke-miterlimit="4" stroke-opacity="1" stroke-width=".5" marker-end="none" marker-mid="none" marker-start="none" d="M 35.620504 3.9384086 A 0.83968931 0.83968931 0 1 1 33.941126,3.9384086 A 0.83968931 0.83968931 0 1 1 35.620504 3.9384086 z" color="#000" display="inline" overflow="visible" transform="matrix(1.331237,0.000000,0.000000,0.658449,-5.692130,9.834650)" visibility="visible" style="marker:none"/><path id="path2727" fill="url(#linearGradient2729)" fill-opacity="1" fill-rule="evenodd" stroke="none" stroke-dashoffset="0" stroke-linecap="butt" stroke-linejoin="miter" stroke-miterlimit="4" stroke-opacity="1" stroke-width=".5" marker-end="none" marker-mid="none" marker-start="none" d="M 35.620504 3.9384086 A 0.83968931 0.83968931 0 1 1 33.941126,3.9384086 A 0.83968931 0.83968931 0 1 1 35.620504 3.9384086 z" color="#000" display="inline" overflow="visible" transform="matrix(1.331237,0.000000,0.000000,0.658449,-5.578530,11.83465)" visibility="visible" style="marker:none"/><path id="path2731" fill="url(#linearGradient2733)" fill-opacity="1" fill-rule="evenodd" stroke="none" stroke-dashoffset="0" stroke-linecap="butt" stroke-linejoin="miter" stroke-miterlimit="4" stroke-opacity="1" stroke-width=".5" marker-end="none" marker-mid="none" marker-start="none" d="M 35.620504 3.9384086 A 0.83968931 0.83968931 0 1 1 33.941126,3.9384086 A 0.83968931 0.83968931 0 1 1 35.620504 3.9384086 z" color="#000" display="inline" overflow="visible" transform="matrix(1.331237,0.000000,0.000000,0.658449,-5.464930,13.83465)" visibility="visible" style="marker:none"/><path id="text2735" fill="#4a4a4a" fill-opacity="1" stroke="none" stroke-linecap="butt" stroke-linejoin="miter" stroke-opacity="1" stroke-width="1.333" d="M 22.500000,30.192666 L 22.781716,30.192666 C 22.865481,30.192667 22.929701,30.211330 22.974376,30.248656 C 23.019345,30.285690 23.041829,30.338594 23.041830,30.407370 C 23.041829,30.476440 23.019345,30.529638 22.974376,30.566965 C 22.929701,30.603998 22.865481,30.622515 22.781716,30.622515 L 22.669735,30.622515 L 22.669735,30.850885 L 22.500000,30.850885 L 22.500000,30.192666 M 22.669735,30.315669 L 22.669735,30.499512 L 22.763640,30.499512 C 22.796558,30.499512 22.821982,30.491576 22.839911,30.475705 C 22.857839,30.459540 22.866804,30.436762 22.866804,30.407370 C 22.866804,30.377979 22.857839,30.355348 22.839911,30.339476 C 22.821982,30.323605 22.796558,30.315669 22.763640,30.315669 L 22.669735,30.315669 M 23.461979,30.303765 C 23.410250,30.303766 23.370131,30.322870 23.341621,30.361078 C 23.313112,30.399288 23.298857,30.453074 23.298857,30.522437 C 23.298857,30.591507 23.313112,30.645146 23.341621,30.683355 C 23.370131,30.721564 23.410250,30.740668 23.461979,30.740668 C 23.514001,30.740668 23.554267,30.721564 23.582778,30.683355 C 23.611287,30.645146 23.625541,30.591507 23.625542,30.522437 C 23.625541,30.453074 23.611287,30.399288 23.582778,30.361078 C 23.554267,30.322870 23.514001,30.303766 23.461979,30.303765 M 23.461979,30.180762 C 23.567787,30.180763 23.650671,30.211036 23.710630,30.271582 C 23.770588,30.332128 23.800567,30.415747 23.800568,30.522437 C 23.800567,30.628834 23.770588,30.712305 23.710630,30.772851 C 23.650671,30.833398 23.567787,30.863671 23.461979,30.863671 C 23.356464,30.863671 23.273580,30.833398 23.213328,30.772851 C 23.153370,30.712305 23.123391,30.628834 23.123391,30.522437 C 23.123391,30.415747 23.153370,30.332128 23.213328,30.271582 C 23.273580,30.211036 23.356464,30.180763 23.461979,30.180762 M 23.928420,30.192666 L 24.117994,30.192666 L 24.357387,30.644117 L 24.357387,30.192666 L 24.518305,30.192666 L 24.518305,30.850885 L 24.328730,30.850885 L 24.089338,30.399434 L 24.089338,30.850885 L 23.928420,30.850885 L 23.928420,30.192666 M 24.591489,30.192666 L 24.777095,30.192666 L 24.926991,30.427209 L 25.076887,30.192666 L 25.262935,30.192666 L 25.012079,30.573578 L 25.012079,30.850885 L 24.842344,30.850885 L 24.842344,30.573578 L 24.591489,30.192666" font-family="Bitstream Vera Sans" font-size=".903" font-stretch="normal" font-style="normal" font-variant="normal" font-weight="bold" text-anchor="start" writing-mode="lr-tb"/></g></svg>