<svg xmlns="http://www.w3.org/2000/svg" xmlns:svg="http://www.w3.org/2000/svg" xmlns:xlink="http://www.w3.org/1999/xlink" id="svg9434" width="24" height="24" version="1.1"><defs id="defs9436"><linearGradient id="linearGradient10012"><stop id="stop10014" offset="0" stop-color="#d3d7cf" stop-opacity="1"/><stop id="stop10016" offset="1" stop-color="#747671" stop-opacity="1"/></linearGradient><linearGradient id="linearGradient9985"><stop id="stop9987" offset="0" stop-color="#a6a6a6" stop-opacity="1"/><stop id="stop9989" offset="1" stop-color="#eeeeec" stop-opacity="1"/></linearGradient><linearGradient id="linearGradient9977"><stop id="stop9979" offset="0" stop-color="#fafafa" stop-opacity="1"/><stop id="stop9981" offset="1" stop-color="#fafafa" stop-opacity="0"/></linearGradient><linearGradient id="linearGradient9407" x1="714.202" x2="714.202" y1="-81.798" y2="-64.777" gradientTransform="translate(0,1)" gradientUnits="userSpaceOnUse" xlink:href="#linearGradient9401"/><linearGradient id="linearGradient9401"><stop id="stop9403" offset="0" stop-color="#2e5991" stop-opacity="1"/><stop id="stop9405" offset="1" stop-color="#4983c1" stop-opacity="1"/></linearGradient><radialGradient id="radialGradient9983" cx="12.001" cy="1035.362" r="11.031" fx="12.001" fy="1035.362" gradientTransform="matrix(3.5911562,0,0,1.7223807,-31.098681,-747.92565)" gradientUnits="userSpaceOnUse" xlink:href="#linearGradient9977"/><linearGradient id="linearGradient9991" x1="13.482" x2="13.482" y1="1057.522" y2="1028.96" gradientUnits="userSpaceOnUse" xlink:href="#linearGradient9985"/><linearGradient id="linearGradient10018" x1="20.288" x2="20.288" y1="1029.222" y2="1052.913" gradientUnits="userSpaceOnUse" xlink:href="#linearGradient10012"/></defs><metadata id="metadata9439"/><g id="layer1" transform="translate(0,-1028.3622)"><rect id="rect9973" width="23" height="23" x=".5" y="1028.862" fill="url(#linearGradient9991)" fill-opacity="1" fill-rule="nonzero" stroke="url(#linearGradient10018)" stroke-dasharray="none" stroke-miterlimit="4" stroke-opacity="1" stroke-width="1" color="#000" display="inline" enable-background="accumulate" overflow="visible" rx="2.121" ry="2.121" visibility="visible" style="marker:none"/><path id="path9975" fill="none" stroke="url(#radialGradient9983)" stroke-dasharray="none" stroke-miterlimit="4" stroke-opacity="1" stroke-width="1" d="m 2.625,1029.8438 c -0.6686179,0 -1.15625,0.4735 -1.15625,1.125 l 0,18.7812 c 0,0.6513 0.5048954,1.1562 1.15625,1.1562 l 18.75,0 c 0.651354,0 1.15625,-0.5049 1.15625,-1.1562 l 0,-18.7812 c 0,-0.6515 -0.487633,-1.125 -1.15625,-1.125 l -18.75,0 z" color="#000" display="inline" enable-background="accumulate" overflow="visible" visibility="visible" xlink:href="#rect9973" style="marker:none"/><g id="g9411" display="inline" transform="translate(-703,1112.3622)"><path font-stretch="normal" style="text-indent:0;text-align:start;line-height:normal;text-transform:none;block-progression:tb;marker:none;-inkscape-font-specification:Sans" id="path9399" fill="#fff" fill-opacity=".825" stroke="none" stroke-width="2" d="m 715,-83 -4,5 3,0 0,7.5625 -1.3125,-1.3125 C 712.86766,-72.1354 713,-72.54648 713,-73 c 0,-1.65685 -1.34315,-3 -3,-3 -1.65685,0 -3,1.34315 -3,3 0,1.65685 1.34315,3 3,3 0.45352,0 0.8646,-0.13234 1.25,-0.3125 l 2.625,2.4375 0.125,0.09375 c -1.15835,0.41551 -2,1.51118 -2,2.8125 0,1.65685 1.34315,3 3,3 1.65685,0 3,-1.34315 3,-3 0,-1.30132 -0.84165,-2.39699 -2,-2.8125 l 0,-2.78125 4.4375,-4.4375 2.5625,0 0,-4 -4,0 0,1 0,1.5625 -3,3 0,-4.5625 3,0 -4,-5 z" baseline-shift="baseline" color="#000" direction="ltr" display="inline" enable-background="accumulate" font-family="Sans" font-size="medium" font-style="normal" font-variant="normal" font-weight="normal" letter-spacing="normal" overflow="visible" text-anchor="start" text-decoration="none" transform="translate(0,0.97227174)" visibility="visible" word-spacing="normal" writing-mode="lr-tb" xlink:href="#path9368"/><path id="path9368" fill="url(#linearGradient9407)" fill-opacity="1" stroke="none" stroke-width="2" d="m 715,-83 -4,5 3,0 0,7.5625 -1.3125,-1.3125 C 712.86766,-72.1354 713,-72.54648 713,-73 c 0,-1.65685 -1.34315,-3 -3,-3 -1.65685,0 -3,1.34315 -3,3 0,1.65685 1.34315,3 3,3 0.45352,0 0.8646,-0.13234 1.25,-0.3125 l 2.61742,2.440641 0.13258,0.08709 c -1.15835,0.41551 -2,1.51118 -2,2.8125 0,1.65685 1.34315,3 3,3 1.65685,0 3,-1.34315 3,-3 0,-1.30132 -0.84165,-2.39699 -2,-2.8125 l 0,-2.777728 4.4375,-4.4375 2.5625,0 0,-4 -4,0 0,2.5625 -3,3 0,-4.5625 3,0 z" baseline-shift="baseline" color="#000" direction="ltr" display="inline" enable-background="accumulate" font-family="Sans" font-size="medium" font-stretch="normal" font-style="normal" font-variant="normal" font-weight="normal" letter-spacing="normal" overflow="visible" text-anchor="start" text-decoration="none" visibility="visible" word-spacing="normal" writing-mode="lr-tb" style="text-indent:0;text-align:start;line-height:normal;text-transform:none;block-progression:tb;marker:none;-inkscape-font-specification:Sans"/><rect stroke-width="2" style="marker:none" id="rect9409" width="24" height="24" x="703" y="-84" fill="none" stroke="none" color="#000" display="inline" enable-background="accumulate" overflow="visible" visibility="visible"/></g></g></svg>